<svg xmlns="http://www.w3.org/2000/svg" viewBox="0 0 19.52 45.82"><defs><style>.cls-1{fill:#be0d0d;}</style></defs><g id="Layer_2" data-name="Layer 2"><g id="beifuss"><path class="cls-1" d="M19.29,33.49c-1.21-.44-4.53.2-6.79.84a4.11,4.11,0,0,0-1.82,1V30.22a3.31,3.31,0,0,0,4.2-.11A10.52,10.52,0,0,0,18,26.45c-2.22.25-3.85.12-5.76.49a3.85,3.85,0,0,0-1.58.61v-4.1c.72.7,2,.92,3.21-.34A11.94,11.94,0,0,0,16.44,19a43.77,43.77,0,0,0-4.67.55,3,3,0,0,0-1.09.52V15.5c.44.22,1,.13,1.59-.58a10.15,10.15,0,0,0,1.56-3.18,23,23,0,0,0-2.87.42,2.44,2.44,0,0,0-.28.14V9.74a1,1,0,0,0,1-.51,7.2,7.2,0,0,0,1.18-2.4,18.14,18.14,0,0,0-2.13.31V5.41a1,1,0,0,0-.24-.64A2.71,2.71,0,0,0,10.6,3,10.3,10.3,0,0,0,9.5,0c-.27,1.27-.6,2.09-.76,3.24a2.42,2.42,0,0,0,.18,1.55,1,1,0,0,0-.24.62V7.14a17.83,17.83,0,0,0-2.13-.31,7.61,7.61,0,0,0,1.18,2.4,1,1,0,0,0,.95.51V12.3a1.83,1.83,0,0,0-.28-.14,23.07,23.07,0,0,0-2.86-.42A9.73,9.73,0,0,0,7.1,14.92c.56.71,1.14.8,1.58.58V20A2.94,2.94,0,0,0,7.6,19.5,43.77,43.77,0,0,0,2.93,19a12.05,12.05,0,0,0,2.54,4.16c1.23,1.26,2.49,1,3.21.34v4.1a3.75,3.75,0,0,0-1.57-.61c-1.92-.37-3.55-.24-5.77-.49a10.74,10.74,0,0,0,3.14,3.66,3.31,3.31,0,0,0,4.2.11V35A4.07,4.07,0,0,0,7,34.09c-2.25-.64-5.57-1.28-6.79-.84-1,.36,1.39,5.14,3.7,6.36S7.74,41,8.68,40v4.79a1,1,0,0,0,2,0V40.09c.92,1.13,2.54,1,4.91-.24S20.28,33.85,19.29,33.49Z"/></g></g></svg>