<svg xmlns="http://www.w3.org/2000/svg" viewBox="0 0 29.45 55.26"><defs><style>.cls-1{fill:#e64011;}</style></defs><g id="Layer_2" data-name="Layer 2"><g id="erle"><path class="cls-1" d="M4.47,34.19l-2.27.07c.12.27.24.54.38.8a15.77,15.77,0,0,0,10.83,8.08,20.52,20.52,0,0,0,1.23,6.25,13.09,13.09,0,0,0,1.81,3.21,9.93,9.93,0,0,0,2.84,2.51,1.09,1.09,0,1,0,1.11-1.88l0,0h0a9.25,9.25,0,0,1-4-4.54,18.57,18.57,0,0,1-1.31-5.46A12.34,12.34,0,0,0,17,42.7a16.57,16.57,0,0,0,3.17-1.39,17.33,17.33,0,0,0,5.21-4.58,16.75,16.75,0,0,0,1.8-3,21.35,21.35,0,0,0,1.11-3.26l-2.67-.64c1.29-1.67,2.57-3.35,3.86-5a6.32,6.32,0,0,1-3.16-1,7.11,7.11,0,0,0,1.82-6.3l-1.68.7c-.12-1.51-.25-3-.38-4.52l-1.87.16a2.93,2.93,0,0,0-2.57-4.31,9.17,9.17,0,0,0-.79-3.79A1.82,1.82,0,0,0,19.4,6a33.53,33.53,0,0,0-5-6l-3,3.92a1.44,1.44,0,0,0-1-1,6.49,6.49,0,0,0-.44,1c-.15.36-.29.73-.41,1.1s-.23.75-.32,1.13a4.87,4.87,0,0,0-.12.52A2.39,2.39,0,0,0,9,7.1a.56.56,0,0,1,0,.34.64.64,0,0,1-.26.3A1.15,1.15,0,0,1,8,7.85c-.19,0-.37-.06-.56-.09a.66.66,0,0,0-.44,0c-.14.09-.12.26-.11.41a2.07,2.07,0,0,1,0,.43c0,.2-.1.39-.14.59a2.28,2.28,0,0,0,.07.86,4.52,4.52,0,0,1,.1,2.16c0,.17-.2.66-.41.64s-.52-.38-.66-.57a4.36,4.36,0,0,0-.59-.8.88.88,0,0,0-.91-.23,1.14,1.14,0,0,0-.46.53,7,7,0,0,0-.84,3,1.43,1.43,0,0,0,0,.41,1.91,1.91,0,0,1,0,.48,2.91,2.91,0,0,1,0,.59,11.72,11.72,0,0,1-2-.15c-.11,0-.2,0-.25.09a.8.8,0,0,0,0,.15,8.51,8.51,0,0,0,0,1,15.31,15.31,0,0,0,1,4.63A3.06,3.06,0,0,0,0,21.6a11.76,11.76,0,0,0,2.14,6.29l-1.21.16A8.9,8.9,0,0,0,4.47,34.19ZM1.76,28.94a13.91,13.91,0,0,1,3.63,1.73,25.51,25.51,0,0,1,3.17,2.51c1.57,1.43,3,3,4.56,4.34l0-.57c-.05-.86-.07-1.72,0-2.6-1.89-1.85-3.72-3.75-5.48-5.72-.93-1.05-1.84-2.12-2.73-3.19a13,13,0,0,0-3-2.84,12.88,12.88,0,0,1,3.27,2.62c1,1,2,2,3,2.94,1.67,1.6,3.39,3.13,5.15,4.62l.15-1c.05-.35.09-.7.14-1.05a1.47,1.47,0,0,1-.1-.13,20,20,0,0,0-2.49-3.32C10,26.2,9,25.17,8.05,24.06s-1.69-2.33-2.56-3.45a7.71,7.71,0,0,0-3.22-2.68,8,8,0,0,1,3.48,2.46c1,1.07,1.81,2.22,2.79,3.22s2.05,1.95,3.09,2.95c.62.6,1.24,1.23,1.82,1.91a.63.63,0,0,1,.19-.44l.22-.22c.12-1.13.24-2.27.33-3.4a.73.73,0,0,1-.4-.09h0a9.9,9.9,0,0,1-2.87-2.86L8.69,18.35,4.23,12.13l5,5.81,2.5,2.9a9,9,0,0,0,2.58,2.23c0-.45.07-.9.1-1.36s.07-1.09.1-1.64a.67.67,0,0,1-.64-.32c-1-1.72-2.13-3.39-3.31-5-.59-.81-1.2-1.61-1.83-2.39A9.12,9.12,0,0,1,7.07,9.8,9,9,0,0,0,9,12.13c.71.71,1.42,1.44,2.1,2.19,1.23,1.34,2.39,2.74,3.51,4.18.06-1.32.1-2.64.14-4q-2.4-3.94-5.12-7.7c1.79,2.1,3.51,4.28,5.15,6.52,0-.58,0-1.17,0-1.75L15,1.46l.26,9.69Q16,10,16.67,8.69c.24-.48.48-1,.7-1.46a2.64,2.64,0,0,0,.32-1.55,2.62,2.62,0,0,1-.15,1.61c-.17.52-.35,1-.54,1.54a30.84,30.84,0,0,1-1.34,3l0,0a.37.37,0,0,1-.39.15c0,.69,0,1.38,0,2.08l0,0,0,0a.36.36,0,0,1,0,.42c0,.46,0,.92,0,1.38a19.55,19.55,0,0,0,3.34-3.34,13.91,13.91,0,0,0,1.44-2.15,4.61,4.61,0,0,0,.44-1.21A2.41,2.41,0,0,1,21,8.05a2.53,2.53,0,0,0-.34,1.24,5,5,0,0,1-.29,1.31,14.94,14.94,0,0,1-1.2,2.4,20.54,20.54,0,0,1-3.34,4.23h0l-.06.05a.67.67,0,0,1-.48.13c0,1.18,0,2.36,0,3.54l2.1-1.8c.84-.73,1.7-1.43,2.47-2.19a12.73,12.73,0,0,0,3.35-5.57,13,13,0,0,1-1,3.18,13.36,13.36,0,0,1-1.83,2.84c-.72.87-1.51,1.66-2.27,2.47L15.81,22.3l-.05,0a.67.67,0,0,1-.48.16c0,1.35-.08,2.69-.16,4l5-5c1.08-1.08,2.17-2.14,3.15-3.29a19.88,19.88,0,0,0,1.36-1.81,4.75,4.75,0,0,0,.5-1,2,2,0,0,0,.08-1.12,2,2,0,0,1,0,1.14,5,5,0,0,1-.44,1.07,18.75,18.75,0,0,1-1.24,1.94c-.91,1.24-1.93,2.38-2.92,3.54L15,28.5c-.08,1-.16,2-.26,3a26.1,26.1,0,0,1,2.6-2.45c1.26-1,2.55-2,3.8-3a27.78,27.78,0,0,0,3.51-3.26,12.67,12.67,0,0,0,2.48-4.09A13,13,0,0,1,24.91,23a28.77,28.77,0,0,1-3.33,3.56c-1.19,1.09-2.42,2.14-3.57,3.24a21.91,21.91,0,0,0-3.09,3.54l0,0a.65.65,0,0,1-.34.23c0,.17,0,.35,0,.52v.2c0,.66,0,1.32.1,2l.06,0a13.51,13.51,0,0,0,3.23-2.66c1-1,1.95-2.17,3.07-3.16s2.34-1.78,3.46-2.69a8,8,0,0,0,2.67-3.36,8.25,8.25,0,0,1-2.46,3.6c-1.06,1-2.23,1.9-3.23,2.92s-1.86,2.18-2.8,3.32a14.4,14.4,0,0,1-3.29,3.12h0l0,0a.65.65,0,0,1-.56,0c.09.81.19,1.64.26,2.49a39.76,39.76,0,0,0,11.38-8,40.25,40.25,0,0,1-11.29,9.41c0,.2,0,.4,0,.6v0a.91.91,0,1,1-1.82-.07h0c0-.85,0-1.71,0-2.6-1.87-1.81-3.43-3.83-5.15-5.68a24.81,24.81,0,0,0-2.9-2.71A13.52,13.52,0,0,0,1.76,28.94Z"/></g></g></svg>