<?xml version="1.0" encoding="UTF-8" standalone="no"?>
<!-- Created with Inkscape (http://www.inkscape.org/) -->

<svg
   width="36.617687mm"
   height="55mm"
   viewBox="0 0 36.617687 54.999999"
   version="1.1"
   id="svg19337"
   inkscape:version="1.1.2 (0a00cf5339, 2022-02-04)"
   sodipodi:docname="esche_0.svg"
   inkscape:export-filename="/home/algot/Documents/runeman.org/clipart/2019/ashleaf.png"
   inkscape:export-xdpi="110.77749"
   inkscape:export-ydpi="110.77749"
   xmlns:inkscape="http://www.inkscape.org/namespaces/inkscape"
   xmlns:sodipodi="http://sodipodi.sourceforge.net/DTD/sodipodi-0.dtd"
   xmlns="http://www.w3.org/2000/svg"
   xmlns:svg="http://www.w3.org/2000/svg"
   xmlns:rdf="http://www.w3.org/1999/02/22-rdf-syntax-ns#"
   xmlns:cc="http://creativecommons.org/ns#"
   xmlns:dc="http://purl.org/dc/elements/1.1/">
  <title
     id="title19397">Ash Leaf</title>
  <defs
     id="defs19331" />
  <sodipodi:namedview
     id="base"
     pagecolor="#ffffff"
     bordercolor="#666666"
     borderopacity="1.0"
     inkscape:pageopacity="0.0"
     inkscape:pageshadow="2"
     inkscape:zoom="1.4"
     inkscape:cx="33.928571"
     inkscape:cy="137.5"
     inkscape:document-units="mm"
     inkscape:current-layer="layer1"
     showgrid="false"
     inkscape:snap-global="false"
     inkscape:window-width="2556"
     inkscape:window-height="1413"
     inkscape:window-x="2560"
     inkscape:window-y="23"
     inkscape:window-maximized="1"
     fit-margin-top="0"
     fit-margin-left="0"
     fit-margin-right="0"
     fit-margin-bottom="0"
     inkscape:pagecheckerboard="0"
     showguides="false" />
  <metadata
     id="metadata19334">
    <rdf:RDF>
      <cc:Work
         rdf:about="">
        <dc:format>image/svg+xml</dc:format>
        <dc:type
           rdf:resource="http://purl.org/dc/dcmitype/StillImage" />
        <dc:title>Ash Leaf</dc:title>
        <dc:date>2019-10-13</dc:date>
        <dc:creator>
          <cc:Agent>
            <dc:title>Algot Runeman</dc:title>
          </cc:Agent>
        </dc:creator>
        <dc:rights>
          <cc:Agent>
            <dc:title>Algot Runeman</dc:title>
          </cc:Agent>
        </dc:rights>
        <dc:publisher>
          <cc:Agent>
            <dc:title>runeman.org</dc:title>
          </cc:Agent>
        </dc:publisher>
        <dc:identifier>ashleaf.svg</dc:identifier>
        <dc:language>en-US</dc:language>
        <dc:subject>
          <rdf:Bag>
            <rdf:li>leaf</rdf:li>
            <rdf:li>compound</rdf:li>
            <rdf:li>silhouette</rdf:li>
            <rdf:li>ash</rdf:li>
            <rdf:li>tree</rdf:li>
            <rdf:li />
          </rdf:Bag>
        </dc:subject>
        <cc:license
           rdf:resource="http://creativecommons.org/publicdomain/zero/1.0/" />
      </cc:Work>
      <cc:License
         rdf:about="http://creativecommons.org/publicdomain/zero/1.0/">
        <cc:permits
           rdf:resource="http://creativecommons.org/ns#Reproduction" />
        <cc:permits
           rdf:resource="http://creativecommons.org/ns#Distribution" />
        <cc:permits
           rdf:resource="http://creativecommons.org/ns#DerivativeWorks" />
      </cc:License>
    </rdf:RDF>
  </metadata>
  <g
     inkscape:label="Layer 1"
     inkscape:groupmode="layer"
     id="layer1"
     transform="translate(-82.999646,-116.06519)">
    <g
       id="g10808"
       transform="matrix(-0.40477715,0.7111153,-0.7111153,-0.40477715,248.46128,124.06166)"
       style="fill:#848484;fill-opacity:1;stroke:#848484;stroke-opacity:1">
      <path
         style="fill:#848484;stroke:#848484;stroke-width:0.264583px;stroke-linecap:butt;stroke-linejoin:miter;stroke-opacity:1;fill-opacity:1"
         d="m 140.22916,130.50149 -0.75595,-1.32292 c 0,0 -0.43881,0.80869 -0.75595,1.13393 -0.726,0.74454 -1.67968,1.22827 -2.55134,1.79539 -2.46316,1.60259 -4.97964,3.1287 -7.55952,4.53571 -2.25078,1.22752 -4.5807,2.30514 -6.89807,3.40179 -3.03252,1.43508 -6.0883,2.8221 -9.16592,4.15773 -2.56493,1.11314 -5.0534,2.46826 -7.74851,3.2128 -3.13011,0.86472 -6.399692,1.18054 -9.638394,1.41741 -1.539292,0.11258 -2.593918,0.13707 -4.630209,0 -0.125709,-0.008 -0.125411,0.36588 0,0.37798 3.839162,0.37054 4.351127,-0.11602 6.520088,-0.28348 1.990662,-0.15369 4.007035,-0.21527 5.953125,-0.66146 2.11684,-0.48533 4.11158,-1.40297 6.14211,-2.17337 2.35155,-0.89219 4.69527,-1.81098 6.99256,-2.83482 2.49621,-1.11249 4.9199,-2.3812 7.37054,-3.59077 2.0842,-1.02871 4.19091,-2.01501 6.2366,-3.11831 1.60243,-0.86424 3.1651,-1.80101 4.72471,-2.74032 1.27275,-0.76654 2.47696,-1.64807 3.77976,-2.36235 0.64241,-0.35221 1.98437,-0.94494 1.98437,-0.94494 z"
         id="path19350"
         inkscape:connector-curvature="0"
         sodipodi:nodetypes="ccsssssssssssssssssc" />
      <path
         style="fill:#848484;stroke:#848484;stroke-width:0.264583px;stroke-linecap:butt;stroke-linejoin:miter;stroke-opacity:1;fill-opacity:1"
         d="m 90.430801,148.64434 c -0.195035,-0.76486 -0.735591,-1.39741 -1.133927,-2.07886 -0.449871,-0.76962 -0.812423,-1.61312 -1.41741,-2.26786 -0.718251,-0.77732 -1.642874,-1.34693 -2.55134,-1.88988 -1.015967,-0.6072 -2.073287,-1.19191 -3.212798,-1.51191 -1.128563,-0.31692 -2.324202,-0.35986 -3.496279,-0.37798 -1.642539,-0.0254 -3.273941,0.47699 -4.91369,0.37798 -0.480951,-0.029 -0.944941,-0.18898 -1.41741,-0.28348 -0.157491,-0.0315 -0.348265,-0.19632 -0.472472,-0.0945 -0.09744,0.0799 -0.03845,0.258 0,0.37798 0.165379,0.51606 0.646802,0.87039 0.944941,1.32292 0.668682,1.01496 1.187371,2.12646 1.889881,3.1183 0.659688,0.93138 1.369168,1.83594 2.173362,2.64584 0.69335,0.69827 1.469571,1.31451 2.267857,1.88988 0.631101,0.45487 1.243126,0.99231 1.984375,1.22842 0.962268,0.3065 2.014023,0.20431 3.02381,0.18899 1.360106,-0.0206 2.774486,0.0572 4.063245,-0.37798 0.844594,-0.28522 1.835706,-0.63771 2.267855,-1.41741 0.137424,-0.24795 0.07004,-0.57576 0,-0.85045 z"
         id="path19352"
         inkscape:connector-curvature="0"
         sodipodi:nodetypes="sssssssssssssssssss" />
      <path
         style="fill:#848484;stroke:#848484;stroke-width:0.264583px;stroke-linecap:butt;stroke-linejoin:miter;stroke-opacity:1;fill-opacity:1"
         d="m 95.155506,149.02232 c 0.573674,0.19233 1.179196,0.57774 1.417409,1.13393 0.286297,0.66846 -0.486222,1.48415 -0.718156,2.17336 -0.546295,1.62335 -1.613895,3.05643 -2.740326,4.34673 -0.838113,0.96004 -1.863866,1.75761 -2.929316,2.45684 -1.00102,0.65695 -1.566595,1.17529 -2.683629,1.6064 -0.762892,0.29443 -1.560703,0.50006 -2.362353,0.66146 -0.497899,0.10025 -1.048485,-0.0188 -1.511904,0.18899 -0.61102,0.27403 -1.311452,1.12246 -1.311452,1.12246 -0.674626,0.16461 -0.788925,0.57609 -0.483936,-0.14985 0,0 0.49249,-0.76055 0.699256,-1.35059 0.260627,-0.74374 0.313483,-1.58365 0.434677,-2.36235 0.170089,-1.09287 0.62758,-2.13499 1.133928,-3.1183 0.559975,-1.08745 1.284674,-2.09355 2.07887,-3.02381 0.564182,-0.66084 1.116762,-1.39878 1.88988,-1.79539 0.599116,-0.30734 1.408994,-0.55802 2.017783,-0.84569 0.667263,-0.31534 0.977097,-0.68885 1.667484,-0.9497 1.061147,-0.40094 2.326256,-0.45508 3.401785,-0.0945 z"
         id="path19354"
         inkscape:connector-curvature="0"
         sodipodi:nodetypes="csssssssccssssssssc" />
      <path
         style="fill:#848484;stroke:#848484;stroke-width:0.264583px;stroke-linecap:butt;stroke-linejoin:miter;stroke-opacity:1;fill-opacity:1"
         d="m 102.49786,148.46496 c -0.79156,0.21925 -1.66169,0.18597 -2.40542,0.53454 -0.56071,0.26279 -1.105403,0.63535 -1.469985,1.13589 -0.850333,1.16742 -1.22127,2.65316 -1.469983,4.07586 -0.279987,1.6016 -0.229935,3.26812 0,4.87767 0.15749,1.10243 0.460877,2.19979 0.935442,3.20724 0.60811,1.29094 1.5144,2.42669 2.405426,3.54132 0.59035,0.7385 1.25479,1.41748 1.9377,2.07134 0.29664,0.28402 0.93545,0.8018 0.93545,0.8018 0,0 -0.49973,-1.13294 -0.60136,-1.73725 -0.11451,-0.68088 -0.10026,-1.38821 0,-2.07134 0.1013,-0.6902 0.43848,-1.32621 0.60136,-2.00452 0.23256,-0.96852 0.26952,-1.97981 0.53454,-2.93996 0.0506,-0.18344 0.14522,-0.35244 0.20045,-0.53454 0.42495,-1.40104 0.79871,-2.82646 1.00226,-4.27631 0.12711,-0.90538 0.19117,-1.82707 0.13364,-2.73952 -0.0726,-1.15116 -0.0687,-2.3846 -0.60136,-3.40768 -0.20365,-0.39113 -0.50626,-0.83413 -0.93544,-0.93545 -0.41129,-0.0971 -0.79546,0.28811 -1.20272,0.40091 z"
         id="path19356"
         inkscape:connector-curvature="0"
         sodipodi:nodetypes="sssssssscssssssssss" />
      <path
         style="fill:#848484;stroke:#848484;stroke-width:0.264583px;stroke-linecap:butt;stroke-linejoin:miter;stroke-opacity:1;fill-opacity:1"
         d="m 110.24868,145.9259 c -0.42102,0.20494 -0.90118,0.31226 -1.26953,0.60135 -0.3612,0.28348 -0.67785,0.65143 -0.86863,1.06908 -0.31951,0.69944 -0.43942,1.50379 -0.4009,2.27179 0.0452,0.90138 0.46277,1.7454 0.73499,2.60588 0.26346,0.83279 0.46682,1.69668 0.86863,2.47224 0.56574,1.09199 1.27798,2.12781 2.13815,3.00679 0.83498,0.85323 1.86304,1.50187 2.87315,2.13815 0.80925,0.50976 1.6749,0.92651 2.53906,1.33635 0.72138,0.34213 1.52054,0.52436 2.20497,0.93544 0.51587,0.30984 1.40317,1.1359 1.40317,1.1359 0,0 -0.31754,-0.9782 -0.46772,-1.46998 -0.2779,-0.90999 -0.60708,-1.80818 -0.80181,-2.73952 -0.17923,-0.8572 -0.17543,-1.74463 -0.33409,-2.60587 -0.24076,-1.30691 -0.39483,-2.66144 -0.93544,-3.87541 -0.38452,-0.86346 -1.07235,-1.55684 -1.60362,-2.33861 -0.73955,-1.08826 -1.45219,-2.1949 -2.20497,-3.27405 -0.28293,-0.4056 -0.48407,-0.89179 -0.86863,-1.20271 -0.47305,-0.38247 -1.06229,-0.74994 -1.67043,-0.735 -0.49788,0.0122 -0.88856,0.45021 -1.33635,0.66818 z"
         id="path19358"
         inkscape:connector-curvature="0"
         sodipodi:nodetypes="sssssssssscsssssssss" />
      <path
         style="fill:#848484;stroke:#848484;stroke-width:0.264583px;stroke-linecap:butt;stroke-linejoin:miter;stroke-opacity:1;fill-opacity:1"
         d="m 118.33358,142.45139 c -0.38676,0.221 -0.7915,0.45342 -1.06908,0.80181 -0.41008,0.51468 -0.6177,1.17227 -0.80181,1.80407 -0.12602,0.43245 -0.23411,0.88718 -0.20045,1.33635 0.0453,0.60418 0.28423,1.1855 0.53454,1.73725 0.36772,0.81055 0.88311,1.54947 1.40317,2.27179 0.5082,0.70585 1.03777,1.40767 1.67043,2.00452 0.46335,0.43713 0.99221,0.80544 1.5368,1.1359 0.91119,0.55291 1.88227,1.01056 2.87315,1.40316 0.91038,0.3607 1.85544,0.63475 2.80633,0.86863 0.83569,0.20554 1.70152,0.26987 2.53906,0.46772 0.8575,0.20256 2.53906,0.73499 2.53906,0.73499 0,0 -0.83401,-0.67211 -1.06908,-1.13589 -0.27649,-0.54551 -0.19499,-1.20852 -0.33409,-1.80407 -0.27904,-1.19465 -0.53051,-2.40884 -1.00226,-3.54132 -0.3835,-0.92062 -0.92116,-1.77318 -1.46998,-2.60588 -0.58589,-0.88895 -1.21595,-1.75639 -1.9377,-2.53906 -0.6094,-0.66084 -1.23688,-1.3363 -2.00452,-1.80407 -0.75241,-0.45849 -1.65784,-0.59917 -2.47225,-0.93544 -0.65425,-0.27014 -1.22993,-0.8592 -1.9377,-0.86863 -0.57903,-0.008 -1.10083,0.38086 -1.60362,0.66817 z"
         id="path19360"
         inkscape:connector-curvature="0"
         sodipodi:nodetypes="ssssssssssscsssssssss" />
      <path
         style="fill:#848484;stroke:#848484;stroke-width:0.264583px;stroke-linecap:butt;stroke-linejoin:miter;stroke-opacity:1;fill-opacity:1"
         d="m 133.90203,152.0731 c 0,0 -0.40974,-1.59066 -0.46772,-2.40543 -0.0633,-0.88976 0.16462,-1.78122 0.13364,-2.67269 -0.0195,-0.56047 -0.0364,-1.13417 -0.20046,-1.67044 -0.27104,-0.88585 -0.74179,-1.71087 -1.26953,-2.47224 -0.56586,-0.81637 -1.28476,-1.52042 -2.00452,-2.20497 -0.5848,-0.55619 -1.20482,-1.08108 -1.87089,-1.5368 -0.33744,-0.23087 -0.67355,-0.49775 -1.06907,-0.60136 -0.36627,-0.096 -0.77039,-0.0988 -1.1359,0 -0.59739,0.1615 -1.05932,0.641 -1.60362,0.93544 -0.35043,0.18956 -0.81592,0.22688 -1.06907,0.53454 -0.69009,0.8387 -0.98165,2.0602 -0.86863,3.14042 0.14098,1.34743 1.04032,2.53782 1.87089,3.60814 0.86066,1.1091 1.91096,2.12862 3.14041,2.80633 0.85201,0.46965 1.91384,0.41459 2.80633,0.80181 0.47656,0.20676 0.87215,0.56862 1.33635,0.8018 0.73181,0.36761 2.27179,0.93545 2.27179,0.93545 z"
         id="path19362"
         inkscape:connector-curvature="0"
         sodipodi:nodetypes="csssssssssssssssc" />
      <path
         style="fill:#848484;stroke:#848484;stroke-width:0.264583px;stroke-linecap:butt;stroke-linejoin:miter;stroke-opacity:1;fill-opacity:1"
         d="m 130.6948,135.83647 c 0.51815,-0.30194 1.08155,-0.55476 1.67043,-0.66817 0.39367,-0.0758 0.80757,-0.0677 1.20272,0 0.39576,0.0678 0.78188,0.21144 1.13589,0.4009 0.49093,0.26274 0.92931,0.62232 1.33635,1.00226 0.47329,0.44178 0.92494,0.92187 1.26953,1.46999 0.2973,0.4729 0.66817,1.5368 0.66817,1.5368 0,0 -0.76839,0.23915 -1.13589,0.4009 -0.6931,0.30506 -1.26987,0.88542 -2.00452,1.06908 -0.38894,0.0972 -0.80184,-0.005 -1.20272,0 -0.95791,0.0111 -1.97381,0.39682 -2.87315,0.0668 -0.50356,-0.18478 -0.83607,-0.67756 -1.20271,-1.06908 -0.34716,-0.37072 -0.78208,-0.71853 -0.93544,-1.20271 -0.14139,-0.4464 -0.14602,-0.98608 0.0668,-1.40317 0.38891,-0.76219 1.26522,-1.17278 2.00454,-1.6036 z"
         id="path19364"
         inkscape:connector-curvature="0"
         sodipodi:nodetypes="sssssscssssssss" />
      <path
         style="fill:#848484;stroke:#848484;stroke-width:0.264583px;stroke-linecap:butt;stroke-linejoin:miter;stroke-opacity:1;fill-opacity:1"
         d="m 129.42527,136.03692 c 0.59525,-0.27345 1.19509,-0.62384 1.60362,-1.13589 0.43595,-0.54641 0.77713,-1.23912 0.8018,-1.9377 0.0149,-0.42233 -0.22972,-0.81635 -0.4009,-1.20272 -0.33125,-0.74764 -0.83062,-1.40998 -1.20271,-2.13815 -0.14511,-0.28397 -0.40091,-0.86863 -0.40091,-0.86863 0,0 -0.5135,0.27991 -0.73499,0.46772 -0.66163,0.56104 -1.22768,1.23566 -1.73725,1.93771 -0.28723,0.39573 -0.62569,0.79292 -0.73499,1.26953 -0.13479,0.58774 0.0739,1.20402 0.13363,1.80406 0.0356,0.35737 -0.0336,0.75124 0.13364,1.06908 0.24972,0.47472 0.6818,0.94114 1.20271,1.06908 0.44591,0.10951 0.91911,-0.14241 1.33635,-0.33409 z"
         id="path19366"
         inkscape:connector-curvature="0"
         sodipodi:nodetypes="ssssscsssssss" />
      <path
         style="fill:#848484;stroke:#848484;stroke-width:0.264583px;stroke-linecap:butt;stroke-linejoin:miter;stroke-opacity:1;fill-opacity:1"
         d="m 125.28259,138.37553 c 0.34778,-0.32823 0.54438,-0.80762 0.66817,-1.26953 0.29426,-1.09802 0.11136,-2.27113 0.13364,-3.40768 0.0179,-0.91299 0.11157,-1.83318 0,-2.73951 -0.10098,-0.82029 -0.21679,-1.67386 -0.60136,-2.40543 -0.46991,-0.89392 -1.4132,-1.45311 -2.00452,-2.27179 -0.36234,-0.50166 -0.93544,-1.60362 -0.93544,-1.60362 0,0 -0.21086,0.5398 -0.33409,0.80181 -0.20353,0.43274 -0.40626,0.86942 -0.66817,1.26953 -0.46865,0.71593 -1.16516,1.26971 -1.60362,2.00452 -0.40911,0.68562 -0.71436,1.4378 -0.93544,2.20498 -0.19366,0.67202 -0.32665,1.372 -0.33409,2.07133 -0.0103,0.96694 0.0184,1.98503 0.4009,2.87315 0.22566,0.52393 0.69937,0.90192 1.06908,1.33635 0.40879,0.48035 0.74791,1.04854 1.26953,1.40316 0.31475,0.21398 0.69459,0.333 1.06908,0.40091 0.4383,0.0795 0.901,0.0943 1.33635,0 0.52604,-0.11395 1.07854,-0.29875 1.46998,-0.66818 z"
         id="path19368"
         inkscape:connector-curvature="0"
         sodipodi:nodetypes="sssssscsssssssssss" />
      <path
         style="fill:#848484;stroke:#848484;stroke-width:0.264583px;stroke-linecap:butt;stroke-linejoin:miter;stroke-opacity:1;fill-opacity:1"
         d="m 118.46722,141.58277 c 0.31252,-0.51905 0.44445,-1.13811 0.53454,-1.73725 0.10929,-0.72682 0.10195,-1.47709 0,-2.20498 -0.20241,-1.44521 -0.85173,-2.79302 -1.20272,-4.20949 -0.20803,-0.83952 -0.37655,-1.68871 -0.53454,-2.53906 -0.12776,-0.6876 -0.10431,-1.41079 -0.33408,-2.07134 -0.285,-0.81933 -0.90749,-1.48347 -1.26953,-2.27179 -0.29701,-0.64674 -0.66881,-1.29594 -0.735,-2.00453 -0.0504,-0.53956 0.26728,-1.60361 0.26728,-1.60361 0,0 -0.72346,0.92745 -1.06908,1.40316 -0.41398,0.56981 -0.80856,1.15356 -1.20272,1.73725 -0.61191,0.90614 -1.3867,1.72892 -1.80407,2.73952 -0.46852,1.13447 -0.64402,2.3841 -0.73499,3.60814 -0.0942,1.26779 -0.0805,2.56873 0.20046,3.80859 0.21845,0.96412 0.67836,1.86321 1.13589,2.73951 0.30597,0.58602 0.61928,1.18597 1.06908,1.67044 0.45462,0.48967 1.00339,0.90915 1.60362,1.20271 0.45625,0.22314 0.96244,0.38206 1.46998,0.4009 0.81626,0.0303 1.68421,-0.0842 2.40542,-0.46772 0.0834,-0.0444 0.15172,-0.1195 0.20046,-0.20045 z"
         id="path19370"
         inkscape:connector-curvature="0"
         sodipodi:nodetypes="sssssssscsssssssssss" />
      <path
         style="fill:#848484;stroke:#848484;stroke-width:0.264583px;stroke-linecap:butt;stroke-linejoin:miter;stroke-opacity:1;fill-opacity:1"
         d="m 110.51595,145.12409 c 0.68798,-0.31642 0.92224,-1.26163 1.06908,-2.00452 0.26042,-1.31752 -0.16731,-2.6865 -0.40091,-4.00904 -0.18792,-1.06392 -0.58073,-2.08289 -0.80181,-3.14042 -0.25401,-1.21501 -0.15299,-2.51749 -0.60135,-3.67496 -0.60472,-1.56111 -1.7501,-2.85901 -2.73952,-4.20949 -0.47697,-0.65102 -1.14352,-1.16614 -1.53679,-1.87089 -0.40157,-0.71962 -0.80181,-2.33861 -0.80181,-2.33861 0,0 -0.059,1.21577 -0.20045,1.80407 -0.25044,1.04171 -0.83534,1.97841 -1.1359,3.00678 -0.36395,1.24526 -0.59497,2.52783 -0.80181,3.80859 -0.1894,1.17279 -0.48108,2.35605 -0.4009,3.54132 0.1287,1.90252 0.64923,3.79436 1.40316,5.54585 0.42752,0.9932 0.97502,1.97255 1.73725,2.73951 0.52261,0.52585 1.15279,1.0184 1.87089,1.20271 0.62711,0.16096 1.31308,0.0367 1.9377,-0.13363 0.28829,-0.0786 0.50523,-0.3644 0.80181,-0.40091 0.2038,-0.0251 0.4148,0.21944 0.60136,0.13364 z"
         id="path19372"
         inkscape:connector-curvature="0"
         sodipodi:nodetypes="ssssssscssssssssss" />
      <path
         style="fill:#848484;stroke:#848484;stroke-width:0.264583px;stroke-linecap:butt;stroke-linejoin:miter;stroke-opacity:1;fill-opacity:1"
         d="m 102.76513,147.66315 c 0.32275,-0.252 0.72528,-0.48507 0.86863,-0.86863 0.44554,-1.19211 -0.0347,-2.55738 -0.26727,-3.80859 -0.31935,-1.71778 -0.91316,-3.37917 -1.5368,-5.0113 -0.4553,-1.19155 -0.9135,-2.40174 -1.60362,-3.4745 -0.572471,-0.88988 -1.328143,-1.65225 -2.071338,-2.40543 -0.543038,-0.55033 -1.204254,-0.97674 -1.737251,-1.5368 -0.393264,-0.41323 -0.789722,-0.83898 -1.069078,-1.33635 -0.127663,-0.22729 -0.267269,-0.73499 -0.267269,-0.73499 0,0 -0.236005,1.34337 -0.400905,2.00452 -0.281363,1.1281 -0.811764,2.19393 -1.00226,3.34087 -0.193547,1.16532 -0.283103,2.36953 -0.133636,3.54132 0.235376,1.8453 0.839184,3.64946 1.603619,5.34539 0.624785,1.38611 1.288304,2.84406 2.405425,3.87541 0.60748,0.56084 1.412567,0.89996 2.204974,1.1359 0.622349,0.1853 1.302949,0.0636 1.937699,0.20045 0.1377,0.0297 0.26089,0.149 0.40091,0.13363 0.25819,-0.0283 0.46344,-0.24105 0.66817,-0.4009 z"
         id="path19374"
         inkscape:connector-curvature="0"
         sodipodi:nodetypes="sssssssscsssssssss" />
      <path
         style="fill:#848484;stroke:#848484;stroke-width:0.264583px;stroke-linecap:butt;stroke-linejoin:miter;stroke-opacity:1;fill-opacity:1"
         d="m 95.615671,148.59859 c 0.259039,-0.15062 0.486286,-0.3915 0.601359,-0.66817 0.308395,-0.74147 0.235009,-1.60881 0.133633,-2.40543 -0.203626,-1.60012 -0.915811,-3.09556 -1.469983,-4.6104 -0.579782,-1.58485 -1.064642,-3.23303 -1.937702,-4.67721 -0.449974,-0.74433 -1.13709,-1.31748 -1.670437,-2.00453 -0.606494,-0.78128 -1.341698,-1.4989 -1.737251,-2.40542 -0.181677,-0.41636 -0.267269,-1.33635 -0.267269,-1.33635 0,0 -0.255269,0.65904 -0.334087,1.00226 -0.115624,0.5035 -0.07288,1.03619 -0.200451,1.5368 -0.182825,0.71744 -0.610301,1.35617 -0.801809,2.07134 -0.338142,1.26277 -0.596482,2.56816 -0.601358,3.87541 -0.0051,1.37332 0.201483,2.76204 0.601358,4.07586 0.30168,0.9912 0.792387,1.92452 1.336347,2.80633 0.399974,0.64839 0.832975,1.29882 1.403165,1.80407 0.3888,0.34452 0.871879,0.56916 1.336347,0.80181 0.473348,0.2371 0.942551,0.55562 1.469982,0.60135 0.726845,0.063 1.50745,-0.101 2.138156,-0.46772 z"
         id="path19376"
         inkscape:connector-curvature="0"
         sodipodi:nodetypes="ssssssscssssssssss" />
    </g>
  </g>
</svg>
