<svg xmlns="http://www.w3.org/2000/svg" viewBox="0 0 29.19 51.46"><defs><style>.cls-1{fill:#ffe99d;fill-rule:evenodd;}</style></defs><g id="Layer_2" data-name="Layer 2"><g id="Hasel"><path class="cls-1" d="M0,21.72c0,.27,0,.53,0,.8a104,104,0,0,1,12.89,8.31q-.24-1.81-.42-3.66c-3.93-3-8-6-12.22-8.76A9.18,9.18,0,0,0,0,20.26C0,20.74,0,21.24,0,21.72Z"/><path class="cls-1" d="M12.93,11.3l-.4.53c0,1.21,0,2.42,0,3.64l0,0a113.27,113.27,0,0,1,9.61-9,6,6,0,0,0-.74-.29,11.81,11.81,0,0,0-2.73-.24c-1.85,1.94-3.63,3.91-5.32,5.93Z"/><path class="cls-1" d="M12.68,16.39l-.14.2c0,1.63.1,3.25.19,4.87A58.68,58.68,0,0,1,25.54,9.8l-.09-.15A10.42,10.42,0,0,0,23.13,7a110.47,110.47,0,0,0-10.25,9.63Z"/><path class="cls-1" d="M11.83,14.81c0-1.13,0-2.26,0-3.39C10.39,9.91,8.89,8.43,7.35,7c-.66.78-1.35,1.53-2,2.27C7.56,11,9.75,12.88,11.83,14.81Z"/><path class="cls-1" d="M12.35,25.75c-.1-1.13-.19-2.27-.26-3.4a55.65,55.65,0,0,0-9.85-8.78q-.29.52-.54,1A23.38,23.38,0,0,0,.57,17.34C4.61,20,8.55,22.84,12.35,25.75Z"/><path class="cls-1" d="M14.34,35.59l.17.09,14.43-9.06a28.59,28.59,0,0,0,.2-5.47,103.32,103.32,0,0,0-15.33,11C14,33.28,14.14,34.43,14.34,35.59Z"/><path class="cls-1" d="M13.27,27.76c.11,1,.22,2.1.36,3.14A104.93,104.93,0,0,1,29,20a25.31,25.31,0,0,0-.83-4.23c-4.9,3.61-9.64,7.39-14.15,11.3l0,0-.51.93Z"/><path class="cls-1" d="M12,20.74c-.07-1.5-.13-3-.16-4.51C9.55,14.08,7.13,12,4.62,10a16.45,16.45,0,0,0-1.87,2.63A56.12,56.12,0,0,1,12,20.74Z"/><path class="cls-1" d="M14.43,39.87c-.23-1.12-.45-2.24-.65-3.36L.49,29.2c.09.57.21,1.15.35,1.72a19.7,19.7,0,0,0,.6,1.94A134.8,134.8,0,0,1,14.28,40Z"/><path class="cls-1" d="M16.75,39.58c5.51,2.84,8.74-1.64,10.55-6.45C23.66,35.13,20.14,37.29,16.75,39.58Z"/><path class="cls-1" d="M16.37,39.84c-.36.38-.73.76-1.09,1.15a.8.8,0,0,1-.25.76c0,.69,0,1.39,0,2.09,0,1.45,0,2.91.15,4.35a8,8,0,0,0,.38,2.24c.25.66.72,1.15,1.19,1s.91-1.27.89-2.24a13.21,13.21,0,0,0-.53-2.76A24.39,24.39,0,0,1,16.37,39.84Z"/><path class="cls-1" d="M14.66,36.84l-.05.12h0c.15.83.31,1.66.47,2.48A140.05,140.05,0,0,1,27.83,31.6a.41.41,0,0,0,0-.08,28.13,28.13,0,0,0,.75-2.87c0-.21.07-.42.11-.63Z"/><path class="cls-1" d="M2.07,34.36a12.26,12.26,0,0,0,4.38,5.2,8.35,8.35,0,0,0,6.69,1C9.59,38.33,5.89,36.26,2.07,34.36Z"/><path class="cls-1" d="M12.84,22.93c.08,1.13.16,2.26.26,3.39l.11.08c4.67-4.06,9.58-8,14.67-11.72a22.13,22.13,0,0,0-1.79-4A57.22,57.22,0,0,0,12.84,22.93Z"/><path class="cls-1" d="M.29,27.86l13.27,7.3c-.16-.95-.3-1.9-.44-2.85A101.59,101.59,0,0,0,0,23.75c0,.35,0,.69,0,1C.1,25.82.17,26.84.29,27.86Z"/><path class="cls-1" d="M11.88,10c.08-2.54.21-5.08.43-7.62A.39.39,0,0,1,12.7,2a.41.41,0,0,1,.31.46c-.24,2.74-.38,5.49-.45,8.23a3.07,3.07,0,0,1,.25.26c1.48-1.75,3-3.47,4.62-5.16a5.56,5.56,0,0,1-.7-.19,5.13,5.13,0,0,1-2.5-2.26,10.86,10.86,0,0,1-.81-1.64A7.29,7.29,0,0,0,12.83.15c-.4-.52-.76.46-1,.78C11.18,2,10.47,3,9.73,4,9.17,4.73,8.58,5.45,8,6.16,9.32,7.42,10.62,8.7,11.88,10Z"/></g></g></svg>