<?xml version="1.0" encoding="UTF-8" standalone="no"?>
<svg
   id="svg2"
   viewBox="0 0 17.53418 55.000002"
   version="1.1"
   sodipodi:docname="roggen_0.svg"
   width="17.53418"
   height="55"
   inkscape:export-filename="/home/leah/projects/lovelace-pollenprognos-card/pollen_img/roggen_0.png"
   inkscape:export-xdpi="96"
   inkscape:export-ydpi="96"
   inkscape:version="1.1.2 (0a00cf5339, 2022-02-04)"
   xmlns:inkscape="http://www.inkscape.org/namespaces/inkscape"
   xmlns:sodipodi="http://sodipodi.sourceforge.net/DTD/sodipodi-0.dtd"
   xmlns="http://www.w3.org/2000/svg"
   xmlns:svg="http://www.w3.org/2000/svg"
   xmlns:rdf="http://www.w3.org/1999/02/22-rdf-syntax-ns#"
   xmlns:cc="http://creativecommons.org/ns#"
   xmlns:dc="http://purl.org/dc/elements/1.1/">
  <defs
     id="defs942" />
  <sodipodi:namedview
     id="namedview940"
     pagecolor="#ffffff"
     bordercolor="#666666"
     borderopacity="1.0"
     inkscape:pageshadow="2"
     inkscape:pageopacity="0.0"
     inkscape:pagecheckerboard="0"
     showgrid="false"
     inkscape:zoom="1.2622319"
     inkscape:cx="-62.191427"
     inkscape:cy="82.789861"
     inkscape:window-width="2556"
     inkscape:window-height="1413"
     inkscape:window-x="2560"
     inkscape:window-y="23"
     inkscape:window-maximized="1"
     inkscape:current-layer="g1329"
     fit-margin-top="0"
     fit-margin-left="0"
     fit-margin-right="0"
     fit-margin-bottom="0" />
  <g
     id="g1329"
     transform="matrix(0.17364045,0,0,0.17364045,-17.149595,-0.01450286)">
    <g
       id="g10501"
       transform="matrix(0.10974028,0,0,0.10974028,87.926479,0.07435658)">
      <path
         id="path3414"
         fill-rule="evenodd"
         d="m 289.62892,2879.5969 82.65182,-37.8573 C 217.39892,2518.5033 187.16256,2132.876 292.54165,1785.376 l 9e-5,-10e-5 c 41.43818,-137.1454 103.51818,-268.9182 163.73636,-402.0363 9e-5,-10e-5 9e-5,-10e-5 9e-5,-2e-4 C 516.47637,1250.603 575.31455,1115.103 609.64183,972.1212 670.53092,717.89394 649.27455,446.16667 551.35092,206.7394 641.3391,449.25757 652.69637,718.97575 584.89183,965.76666 546.8091,1104.703 484.38274,1235.8757 420.17365,1366.2757 c -9e-5,10e-5 -9e-5,10e-5 -9e-5,2e-4 -64.48728,130.6546 -131.51818,261.8546 -179.37273,402.4727 v 1e-4 c -121.13636,357.1637 -104.52727,761.1455 48.82545,1110.8182 z"
         style="fill:#848484;fill-opacity:1;stroke:#848484;stroke-width:9.09091;stroke-opacity:1" />
      <path
         id="path3448-7-6-8"
         stroke="#000000"
         stroke-width="27.2727"
         fill="#ff0000"
         d="m 289.26528,1371.0515 c 21.67273,10.5827 39.47091,28.8972 49.43091,50.8636 9.96,21.9664 12.00728,47.4218 5.68673,70.6973 -9.13091,33.6227 -36,61.7327 -68.97818,72.9718 -32.97818,11.2391 -71.11091,5.534 -99.72727,-14.3427 -28.37909,-19.7128 -46.56182,-51.6791 -55.30455,-85.1082 -8.74291,-33.4291 -8.851,-68.4946 -7.00582,-103 3.4471,-64.4582 13.53364,-128.5636 30.05,-190.9636 15.90909,51.7645 43.17728,100 79.32364,140.3272 19.76273,22.0482 42.14454,41.7464 66.52364,58.5491"
         style="fill:#848484;fill-opacity:1;stroke:#848484;stroke-opacity:1" />
      <path
         id="path3448-7-6-8-9"
         stroke="#000000"
         stroke-width="27.2727"
         fill="#ff0000"
         d="m 401.62892,1134.3242 c 22.00545,9.8727 40.39,27.5973 51.06,49.2282 10.66909,21.6309 13.54363,47.0054 7.98409,70.4745 -8.03173,33.9028 -33.97182,62.8709 -66.56727,75.1773 -32.59455,12.3064 -70.89273,7.8447 -100.13637,-11.09 -29.00545,-18.7782 -48.21818,-50.1364 -58.04454,-83.2636 -9.82545,-33.1273 -11.07455,-68.17 -10.35364,-102.7182 1.34791,-64.5364 9.34364,-128.9273 23.82,-191.83638 17.58455,51.21909 46.40818,98.54548 83.84728,137.67268 20.47,21.3928 43.47999,40.3528 68.39363,56.3528"
         style="fill:#848484;fill-opacity:1;stroke:#848484;stroke-opacity:1" />
      <path
         id="path3448-7-6-8-9-6"
         stroke="#000000"
         stroke-width="27.2727"
         fill="#ff0000"
         d="m 493.71983,897.59693 c 22.46,8.79009 41.68545,25.6 53.39363,46.68546 11.70909,21.08545 15.81455,46.29091 11.40273,70.00361 -6.37309,34.2527 -30.87364,64.4491 -62.83091,78.3264 -31.95818,13.8773 -70.42727,11.2836 -100.56363,-6.2057 -29.88455,-17.3454 -50.6,-47.7318 -62.02637,-80.3418 -11.42545,-32.60997 -14.37818,-67.55088 -15.33818,-102.09088 -1.793,-64.52545 3.06091,-129.23636 14.46,-192.77272 20.05546,50.30363 51.14727,96.17273 90.44455,133.43636 21.48636,20.37182 45.39181,38.19 71.05363,52.96"
         style="fill:#848484;fill-opacity:1;stroke:#848484;stroke-opacity:1" />
      <path
         id="path3448-7-6-8-9-6-6"
         stroke="#000000"
         stroke-width="18.1818"
         fill="#ff0000"
         d="m 542.90164,679.77875 c 19.4191,6.64473 36.38364,20.22728 47.11546,37.72182 10.73182,17.49455 15.15273,38.77273 12.27636,59.09455 -4.15491,29.35636 -23.87091,55.9309 -50.52909,68.90818 -26.65818,12.97636 -59.45909,12.19091 -85.72272,-1.56728 -26.04637,-13.64454 -44.77909,-38.71363 -55.69546,-66.01636 -10.91636,-27.30273 -14.71454,-56.89909 -16.80454,-86.22909 -3.90409,-54.79182 -2.16373,-109.98181 5.18445,-164.41818 18.90546,42.02637 47.03091,79.87636 81.81455,110.10909 19.01818,16.52727 39.99909,30.79364 62.3609,42.40455"
         style="fill:#848484;fill-opacity:1;stroke:#848484;stroke-opacity:1" />
      <path
         id="path3448-7-6-8-1"
         stroke="#000000"
         stroke-width="27.2727"
         fill="#ff0000"
         d="m 521.17437,1480.506 c -23.39091,-5.8804 -48.80363,-3.3529 -70.57727,7.0196 -21.77454,10.3727 -39.74909,28.5127 -49.92182,50.3818 -14.69454,31.5909 -12.27363,70.4 5.693,100.2545 17.96637,29.8509 50.79637,50.0709 85.48546,53.3218 34.40272,3.2241 68.91,-9.4927 97.14545,-29.4127 28.23364,-19.92 50.92,-46.6582 71.75273,-74.2254 38.91636,-51.5 72.52727,-107.0091 100.12727,-165.3637 -45.53091,29.3182 -97.47273,48.6191 -151.1,56.1464 -29.32091,4.1155 -59.13,4.7469 -88.59909,1.8766"
         style="fill:#848484;fill-opacity:1;stroke:#848484;stroke-opacity:1" />
      <path
         id="path3448-7-6-8-1-9"
         stroke="#000000"
         stroke-width="27.2727"
         fill="#ff0000"
         d="m 634.4471,1230.4151 c -23.39091,-5.8804 -48.80364,-3.3529 -70.57727,7.0196 -21.77455,10.3727 -39.74909,28.5127 -49.92182,50.3818 -14.69455,31.5909 -12.27364,70.4 5.693,100.2545 17.96636,29.8509 50.79636,50.0709 85.48545,53.3218 34.40273,3.2241 68.91,-9.4927 97.14546,-29.4127 28.23363,-19.92 50.91999,-46.6582 71.75272,-74.2254 38.91637,-51.5 72.52727,-107.0091 100.12727,-165.3637 -45.53091,29.3182 -97.47272,48.6191 -151.09999,56.1464 -29.32091,4.1155 -59.13,4.7469 -88.59909,1.8766"
         style="fill:#848484;fill-opacity:1;stroke:#848484;stroke-opacity:1" />
      <path
         id="path3448-7-6-8-1-95"
         stroke="#000000"
         stroke-width="27.2727"
         fill="#ff0000"
         d="m 712.26528,977.77875 c -23.94364,-2.90409 -48.83909,2.78673 -69.14273,15.80545 -20.30363,13.0182 -35.86454,33.2673 -43.21727,56.2382 -10.62182,33.1818 -3.35809,71.3836 18.20636,98.7454 21.56364,27.3655 56.66818,43.3137 91.49091,42.1937 34.53546,-1.1108 67.17818,-18.05 92.69091,-41.35 25.51545,-23.3 44.67454,-52.6691 61.88909,-82.6291 32.15909,-55.9691 58.55182,-115.24547 78.62545,-176.60001 -41.5,34.79 -90.61727,60.44636 -142.88181,74.63182 -28.57455,7.75599 -58.07,12.11636 -87.66637,12.95999"
         style="fill:#848484;fill-opacity:1;stroke:#848484;stroke-opacity:1" />
      <path
         id="path3448-7-6-8-1-95-0"
         stroke="#000000"
         stroke-width="18.1818"
         fill="#ff0000"
         d="m 722.81073,721.68784 c -20.74,3.38764 -40.18909,14.19819 -54.01545,30.02546 -13.82636,15.82636 -21.92636,36.55091 -22.49818,57.55818 -0.82546,30.34636 14.53454,60.54636 39.22818,78.20545 24.69273,17.65818 57.94182,22.47364 86.80818,13.07546 28.62818,-9.32091 51.82636,-31.42637 67.51545,-57.12273 15.68909,-25.69636 24.58455,-54.92545 31.71,-84.17818 13.31,-54.64636 20.99091,-110.66363 22.88091,-166.87273 -26.27272,39.19455 -61.13727,72.59637 -101.41818,97.16364 -22.02545,13.43273 -45.64636,24.24818 -70.20636,32.14545"
         style="fill:#848484;fill-opacity:1;stroke:#848484;stroke-opacity:1" />
      <path
         id="path3448-7-6-8-1-95-0-3"
         stroke="#000000"
         stroke-width="18.1818"
         fill="#ff0000"
         d="m 693.81073,535.77876 c -16.73636,8.04663 -30.52545,22.06363 -38.29636,38.92909 -7.77118,16.86545 -9.46727,36.45454 -4.70945,54.40545 6.87236,25.93 27.42818,47.69818 52.76545,56.50545 25.33818,8.80773 54.72364,4.59373 76.84818,-10.57545 21.94182,-15.04455 36.09091,-39.57091 42.97909,-65.26727 6.88791,-25.69727 7.13536,-52.69364 5.87636,-79.26818 -2.35209,-49.64364 -9.81818,-99.04546 -22.24181,-147.16364 -12.49091,39.78 -33.71182,76.79364 -61.73,107.67273 -15.31909,16.88273 -32.64364,31.94363 -51.49182,44.76636"
         style="fill:#848484;fill-opacity:1;stroke:#848484;stroke-opacity:1" />
      <path
         id="path3448-7-6-8-1-95-0-3-8"
         stroke="#000000"
         stroke-width="13.6364"
         fill="#ff0000"
         d="m 643.81073,336.2333 c -12.14545,9.99 -20.66363,24.29728 -23.65909,39.73455 -2.995,15.43818 -0.44363,31.89273 7.08482,45.69909 10.87546,19.94454 32.16818,33.70909 54.78455,35.85 22.61636,2.141 45.93818,-7.24437 61.08181,-24.17818 15.01819,-16.79455 21.71637,-39.81818 22.20546,-62.34273 0.49,-22.52454 -4.74482,-44.78091 -11.13273,-66.38545 -11.93454,-40.36091 -28.02636,-79.49091 -47.93818,-116.57273 -2.26182,35.23727 -12.26091,69.95636 -29.08818,101 -9.2,16.97273 -20.41636,32.85091 -33.33727,47.19454"
         style="fill:#848484;fill-opacity:1;stroke:#848484;stroke-opacity:1" />
      <path
         id="path3448-7-6-8-9-6-6-1"
         stroke="#000000"
         stroke-width="18.1818"
         fill="#ff0000"
         d="m 564.08346,500.41512 c 15.44909,4.79764 29.12,15.11636 37.97,28.65727 8.84946,13.54182 12.81091,30.20546 11.00273,46.28091 -2.61218,23.22182 -17.54636,44.60364 -38.25636,55.42727 -20.71,10.82455 -46.57091,10.94364 -67.57182,0.69637 -20.82818,-10.16273 -36.15091,-29.49182 -45.36727,-50.75637 -9.21546,-21.26454 -12.87455,-44.49636 -15.18182,-67.55636 -4.31009,-43.07909 -4.18218,-86.60182 0.38091,-129.65454 15.84182,32.68454 38.85272,61.8709 66.93818,84.90272 15.35545,12.59273 32.20727,23.36 50.08636,32.00364 h -2.7e-4"
         style="fill:#848484;fill-opacity:1;stroke:#848484;stroke-opacity:1" />
      <path
         id="path3448-7-6-8-9-6-6-1-6"
         stroke="#000000"
         stroke-width="13.6364"
         fill="#ff0000"
         d="m 550.62892,331.86967 c 11.12363,2.03645 21.47636,8.05345 28.75182,16.71091 7.27554,8.65763 11.42,19.89181 11.5109,31.2 0.13091,16.33545 -8.44418,32.42545 -21.91181,41.67181 -13.46764,9.24637 -31.40546,11.49455 -46.84,6.14009 -15.30637,-5.31 -27.56,-17.44272 -35.73546,-31.42909 -8.17618,-13.98727 -12.66091,-29.80454 -16.19272,-45.61636 -6.59782,-29.53818 -10.15273,-59.75545 -10.59,-90.01818 13.7309,21.35818 32.14454,39.68909 53.56545,53.32273 11.71182,7.45427 24.30909,13.51636 37.44091,18.01909"
         style="fill:#848484;fill-opacity:1;stroke:#848484;stroke-opacity:1" />
      <path
         id="path3448-7-6-8-1-95-0-3-8-8"
         stroke="#000000"
         fill="#ff0000"
         d="m 606.81073,231.05149 c -6.76481,2.44827 -12.62636,7.31272 -16.27999,13.51 -3.65355,6.19736 -5.07173,13.68181 -3.93864,20.78636 1.63682,10.26273 8.71018,19.45455 18.13273,23.83909 9.42272,4.38382 20.91363,3.90645 30.03272,-1.07682 9.04446,-4.94218 15.45546,-13.84363 19.11273,-23.47909 3.65782,-9.63545 4.807,-20.03182 5.35891,-30.32363 1.03109,-19.22637 0.0818,-38.55909 -2.82891,-57.59182 -6.36727,14.84545 -15.99091,28.28363 -27.99545,39.09091 -6.56346,5.90927 -13.8291,11.03818 -21.59455,15.24545"
         style="fill:#848484;fill-opacity:1;stroke:#848484;stroke-width:9.09091;stroke-opacity:1" />
      <path
         id="path3448-7-6-8-9-6-6-1-6-6"
         stroke="#000000"
         fill="#ff0000"
         d="m 542.62892,238.59694 c 5.89009,1.13382 11.35182,4.37518 15.16909,9.00218 3.817,4.627 5.961,10.60546 5.95454,16.60364 -0.009,8.66482 -4.63536,17.15727 -11.82272,21.99636 -7.18773,4.83909 -16.71273,5.94473 -24.87273,3.03037 -8.09264,-2.89028 -14.53273,-9.38455 -18.80182,-16.84182 -4.269,-7.458 -6.57118,-15.86909 -8.368,-24.27273 -3.35673,-15.69818 -5.09618,-31.74273 -5.182,-47.79545 7.17955,11.39454 16.85727,21.20545 28.15273,28.54 6.17573,4.01018 12.82727,7.28645 19.77091,9.73818"
         style="fill:#848484;fill-opacity:1;stroke:#848484;stroke-width:9.09091;stroke-opacity:1" />
      <path
         id="path3448-7-6-8-1-95-0-3-8-8-8"
         stroke="#000000"
         fill="#ff0000"
         d="m 581.4471,145.1424 c 5.83418,4.20936 10.13727,10.49454 11.95182,17.45636 1.81418,6.96173 1.12581,14.54818 -1.91191,21.06909 -4.38809,9.42 -13.71091,16.32091 -23.97455,17.95273 -10.26363,1.63209 -21.18272,-1.97773 -28.58636,-9.27091 -7.34264,-7.23273 -11.06727,-17.55091 -11.94273,-27.82 -0.87545,-10.26909 0.87,-20.58182 3.16127,-30.63091 4.28037,-18.77273 10.49455,-37.103635 18.51182,-54.60909 2.05264,16.021818 7.62291,31.58455 16.20364,45.26909 4.69164,7.48255 10.27182,14.40727 16.58636,20.58182"
         style="fill:#848484;fill-opacity:1;stroke:#848484;stroke-width:9.09091;stroke-opacity:1" />
      <path
         id="path3976"
         stroke="#000000"
         stroke-width="9.09091px"
         fill="none"
         d="m 441.62892,1605.506 c 120.68182,-34.86 232.75454,-99.1454 323.77272,-185.7091 74.89546,-71.2291 135.54545,-157.3818 177.33636,-251.9091"
         style="stroke:#848484;stroke-opacity:1" />
      <path
         id="path3976-5"
         stroke="#000000"
         stroke-width="9.09091px"
         fill="none"
         d="m 563.71983,1343.4151 c 124.49999,-23.7218 240.43636,-90.2209 323.77272,-185.7091 62.15273,-71.2154 106.22727,-158.0818 127.00905,-250.29089"
         style="stroke:#848484;stroke-opacity:1" />
      <path
         id="path3976-5-1"
         stroke="#000000"
         stroke-width="9.09091px"
         fill="none"
         d="m 676.90164,1105.2333 c 110.01818,-36.5164 206.02727,-113.7 265.33636,-213.30909 45.90182,-77.09909 69.9255,-167.06364 68.5673,-256.78182"
         style="stroke:#848484;stroke-opacity:1" />
      <path
         id="path3976-5-1-2"
         stroke="#000000"
         stroke-width="9.09091px"
         fill="none"
         d="m 704.4471,834.96057 c 82.68545,-57.45 148.10909,-139.41818 185.7909,-232.79091 26.36364,-65.32181 39.28364,-136.03636 37.72364,-206.45454"
         style="stroke:#848484;stroke-opacity:1" />
      <path
         id="path3976-5-1-2-7"
         stroke="#000000"
         stroke-width="9.09091px"
         fill="none"
         d="m 718.99255,629.59694 c 42.39546,-67.93546 71.48364,-144.14546 85.13909,-223.04546 11.97727,-69.20909 12.10818,-140.45454 0.38546,-209.70908"
         style="stroke:#848484;stroke-opacity:1" />
      <path
         id="path3976-5-1-2-7-2"
         stroke="#000000"
         stroke-width="5.45455"
         fill="none"
         d="M 665.81073,409.59694 C 711.39528,349.3033 727.66528,267.8424 708.74255,194.66967 701.54546,166.83785 689.53892,140.25694 673.41346,116.45785"
         style="stroke:#848484;stroke-opacity:1" />
      <path
         id="path3976-5-1-2-7-2-4"
         stroke="#000000"
         stroke-width="2.72727"
         fill="none"
         d="m 612.35619,280.59694 c 28.10364,-30.29818 44.33182,-71.33273 44.55454,-112.65454 0.19091,-35.38182 -11.22818,-70.731821 -32.08181,-99.318184"
         style="stroke:#848484;stroke-opacity:1" />
      <path
         id="path3976-5-1-2-7-2-7"
         stroke="#000000"
         stroke-width="5.45455"
         fill="none"
         d="m 560.35619,176.68785 c -15.24545,-29.37 -20.22455,-63.94545 -13.88636,-96.427271 5.77545,-29.596363 20.86454,-57.303635 42.59363,-78.2118168"
         style="stroke:#848484;stroke-opacity:1" />
      <path
         id="path3976-5-1-2-7-2-7-5"
         stroke="#000000"
         stroke-width="3.63636"
         fill="none"
         d="m 545.35619,276.1424 c -23.89091,-20.58 -42.20182,-47.57637 -52.48727,-77.38455 -13.28364,-38.49454 -12.92818,-81.54545 0.99054,-119.81818"
         style="stroke:#848484;stroke-opacity:1" />
      <path
         id="path3976-5-1-2-7-2-7-8"
         stroke="#000000"
         stroke-width="4.54545"
         fill="none"
         d="M 547.53801,398.14239 C 504.26074,363.71876 472.38074,315.20421 457.9571,261.82421 445.32801,215.08149 446.0371,164.81512 459.98019,118.4424"
         style="stroke:#848484;stroke-opacity:1" />
      <path
         id="path3976-5-1-2-7-2-7-8-5"
         stroke="#000000"
         stroke-width="5.45455"
         fill="none"
         d="M 550.81074,594.2333 C 500.50892,531.59421 465.16801,457.02421 448.53801,378.42421 437.1371,324.54967 434.45346,268.8424 440.62383,214.12421"
         style="stroke:#848484;stroke-opacity:1" />
      <path
         id="path3976-5-1-2-7-2-7-8-5-5"
         stroke="#000000"
         stroke-width="8.18182"
         fill="none"
         d="M 509.26528,789.41512 C 461.0371,725.3933 426.00619,651.47875 406.99256,573.60603 390.06619,504.2933 385.80619,431.90603 394.4871,361.08785"
         style="stroke:#848484;stroke-opacity:1" />
      <path
         id="path3976-5-1-2-7-2-7-8-5-5-5"
         stroke="#000000"
         fill="none"
         d="M 443.53801,992.59693 C 377.45528,910.79057 336.07437,809.29693 326.11074,704.60603 320.29337,643.46421 325.01547,581.3333 340.0071,521.76966"
         style="stroke:#848484;stroke-width:9.09091;stroke-opacity:1" />
      <path
         id="path3976-5-1-2-7-2-7-8-5-5-5-8"
         stroke="#000000"
         fill="none"
         d="m 347.62892,1262.3242 c -48.08364,-87.81 -80.25,-184.3 -94.47273,-283.4 -15.45,-107.66363 -9.66909,-218.32727 16.91182,-323.7909"
         style="stroke:#848484;stroke-width:9.09091;stroke-opacity:1" />
      <path
         id="path3976-5-1-2-7-2-7-8-5-5-5-8-9"
         stroke="#000000"
         fill="none"
         d="M 223.26528,1499.3242 C 187.35529,1397.9151 161.11892,1293.0787 145.02892,1186.6969 130.78165,1092.506 124.48438,997.11511 126.2262,901.86966"
         style="stroke:#848484;stroke-width:9.09091;stroke-opacity:1" />
    </g>
  </g>
  <metadata
     id="metadata937">
    <rdf:RDF>
      <cc:Work>
        <dc:format>image/svg+xml</dc:format>
        <dc:type
           rdf:resource="http://purl.org/dc/dcmitype/StillImage" />
        <cc:license
           rdf:resource="http://creativecommons.org/publicdomain/zero/1.0/" />
        <dc:publisher>
          <cc:Agent
             rdf:about="http://openclipart.org/">
            <dc:title>Openclipart</dc:title>
          </cc:Agent>
        </dc:publisher>
        <dc:date>2013-04-15T19:44:56</dc:date>
        <dc:description>Bread feedstock (Chrits body)</dc:description>
        <dc:source>https://openclipart.org/detail/177077/rye-by-ictusgpr-177077</dc:source>
        <dc:creator>
          <cc:Agent>
            <dc:title>ictusgpr</dc:title>
          </cc:Agent>
        </dc:creator>
        <dc:subject>
          <rdf:Bag>
            <rdf:li>bread</rdf:li>
            <rdf:li>flour</rdf:li>
            <rdf:li>rye</rdf:li>
          </rdf:Bag>
        </dc:subject>
      </cc:Work>
      <cc:License
         rdf:about="http://creativecommons.org/licenses/publicdomain/">
        <cc:permits
           rdf:resource="http://creativecommons.org/ns#Reproduction" />
        <cc:permits
           rdf:resource="http://creativecommons.org/ns#Distribution" />
        <cc:permits
           rdf:resource="http://creativecommons.org/ns#DerivativeWorks" />
      </cc:License>
    </rdf:RDF>
  </metadata>
</svg>
